<svg width="106" height="22" viewBox="0 0 106 22" fill="none" xmlns="http://www.w3.org/2000/svg">
<path d="M0.432 17L4.848 0.199999H10.368L14.784 17H11.52L10.608 13.304H4.608L3.696 17H0.432ZM5.352 10.376H9.864L7.824 2.192H7.392L5.352 10.376ZM21.8349 17.336C20.2829 17.336 19.0109 17 18.0189 16.328C17.0269 15.656 16.4269 14.696 16.2189 13.448L19.0029 12.728C19.1149 13.288 19.2989 13.728 19.5549 14.048C19.8269 14.368 20.1549 14.6 20.5389 14.744C20.9389 14.872 21.3709 14.936 21.8349 14.936C22.5389 14.936 23.0589 14.816 23.3949 14.576C23.7309 14.32 23.8989 14.008 23.8989 13.64C23.8989 13.272 23.7389 12.992 23.4189 12.8C23.0989 12.592 22.5869 12.424 21.8829 12.296L21.2109 12.176C20.3789 12.016 19.6189 11.8 18.9309 11.528C18.2429 11.24 17.6909 10.848 17.2749 10.352C16.8589 9.856 16.6509 9.216 16.6509 8.432C16.6509 7.248 17.0829 6.344 17.9469 5.72C18.8109 5.08 19.9469 4.76 21.3549 4.76C22.6829 4.76 23.7869 5.056 24.6669 5.648C25.5469 6.24 26.1229 7.016 26.3949 7.976L23.5869 8.84C23.4589 8.232 23.1949 7.8 22.7949 7.544C22.4109 7.288 21.9309 7.16 21.3549 7.16C20.7789 7.16 20.3389 7.264 20.0349 7.472C19.7309 7.664 19.5789 7.936 19.5789 8.288C19.5789 8.672 19.7389 8.96 20.0589 9.152C20.3789 9.328 20.8109 9.464 21.3549 9.56L22.0269 9.68C22.9229 9.84 23.7309 10.056 24.4509 10.328C25.1869 10.584 25.7629 10.96 26.1789 11.456C26.6109 11.936 26.8269 12.592 26.8269 13.424C26.8269 14.672 26.3709 15.64 25.4589 16.328C24.5629 17 23.3549 17.336 21.8349 17.336ZM30.7729 21.8V19.16H37.2529C37.7009 19.16 37.9249 18.92 37.9249 18.44V15.44H37.4929C37.3649 15.712 37.1649 15.984 36.8929 16.256C36.6209 16.528 36.2529 16.752 35.7889 16.928C35.3249 17.104 34.7329 17.192 34.0129 17.192C33.0849 17.192 32.2689 16.984 31.5649 16.568C30.8769 16.136 30.3409 15.544 29.9569 14.792C29.5729 14.04 29.3809 13.176 29.3809 12.2V5.096H32.4049V11.96C32.4049 12.856 32.6209 13.528 33.0529 13.976C33.5009 14.424 34.1329 14.648 34.9489 14.648C35.8769 14.648 36.5969 14.344 37.1089 13.736C37.6209 13.112 37.8769 12.248 37.8769 11.144V5.096H40.9009V19.112C40.9009 19.928 40.6609 20.576 40.1809 21.056C39.7009 21.552 39.0609 21.8 38.2609 21.8H30.7729ZM44.2659 17V5.096H47.2419V6.656H47.6739C47.8659 6.24 48.2259 5.848 48.7539 5.48C49.2819 5.096 50.0819 4.904 51.1539 4.904C52.0819 4.904 52.8899 5.12 53.5779 5.552C54.2819 5.968 54.8259 6.552 55.2099 7.304C55.5939 8.04 55.7859 8.904 55.7859 9.896V17H52.7619V10.136C52.7619 9.24 52.5379 8.568 52.0899 8.12C51.6579 7.672 51.0339 7.448 50.2179 7.448C49.2899 7.448 48.5699 7.76 48.0579 8.384C47.5459 8.992 47.2899 9.848 47.2899 10.952V17H44.2659ZM64.647 17.336C63.495 17.336 62.447 17.096 61.503 16.616C60.575 16.136 59.839 15.44 59.295 14.528C58.751 13.616 58.479 12.512 58.479 11.216V10.88C58.479 9.584 58.751 8.48 59.295 7.568C59.839 6.656 60.575 5.96 61.503 5.48C62.447 5 63.495 4.76 64.647 4.76C65.783 4.76 66.759 4.96 67.575 5.36C68.391 5.76 69.047 6.312 69.543 7.016C70.055 7.704 70.391 8.488 70.551 9.368L67.623 9.992C67.559 9.512 67.415 9.08 67.191 8.696C66.967 8.312 66.647 8.008 66.231 7.784C65.831 7.56 65.327 7.448 64.719 7.448C64.111 7.448 63.559 7.584 63.063 7.856C62.583 8.112 62.199 8.504 61.911 9.032C61.639 9.544 61.503 10.176 61.503 10.928V11.168C61.503 11.92 61.639 12.56 61.911 13.088C62.199 13.6 62.583 13.992 63.063 14.264C63.559 14.52 64.111 14.648 64.719 14.648C65.631 14.648 66.319 14.416 66.783 13.952C67.263 13.472 67.567 12.848 67.695 12.08L70.623 12.776C70.415 13.624 70.055 14.4 69.543 15.104C69.047 15.792 68.391 16.336 67.575 16.736C66.759 17.136 65.783 17.336 64.647 17.336ZM71.8695 17L76.2855 0.199999H81.8055L86.2215 17H82.9575L82.0455 13.304H76.0455L75.1335 17H71.8695ZM76.7895 10.376H81.3015L79.2615 2.192H78.8295L76.7895 10.376ZM88.2324 17V0.199999H95.1444C96.2004 0.199999 97.1284 0.415999 97.9284 0.847999C98.7444 1.264 99.3764 1.856 99.8244 2.624C100.288 3.392 100.52 4.304 100.52 5.36V5.696C100.52 6.736 100.28 7.648 99.8004 8.432C99.3364 9.2 98.6964 9.8 97.8804 10.232C97.0804 10.648 96.1684 10.856 95.1444 10.856H91.4004V17H88.2324ZM91.4004 7.976H94.8324C95.5844 7.976 96.1924 7.768 96.6564 7.352C97.1204 6.936 97.3524 6.368 97.3524 5.648V5.408C97.3524 4.688 97.1204 4.12 96.6564 3.704C96.1924 3.288 95.5844 3.08 94.8324 3.08H91.4004V7.976ZM102.717 17V0.199999H105.885V17H102.717Z" fill="#008055"/>
</svg>
