<svg width="20" height="20" viewBox="0 0 20 20" fill="none" xmlns="http://www.w3.org/2000/svg">
<g clip-path="url(#clip0_12_3099)">
<path d="M18.2457 8.18572C18.4676 7.51243 18.5446 6.799 18.4716 6.0932C18.3985 5.38741 18.177 4.70553 17.8219 4.09322C16.7418 2.19322 14.5703 1.21572 12.4496 1.67572C11.9834 1.14499 11.4103 0.720957 10.7688 0.431986C10.1273 0.143016 9.43208 -0.00423142 8.7297 9.25427e-05C6.56197 -0.00490746 4.63861 1.40509 3.97171 3.48884C3.28334 3.63122 2.63301 3.92049 2.06425 4.3373C1.49548 4.75411 1.02139 5.28885 0.673716 5.90572C-0.414479 7.80072 -0.166403 10.1895 1.28741 11.8145C1.06546 12.4878 0.988453 13.2012 1.06154 13.907C1.13462 14.6128 1.35611 15.2947 1.71118 15.907C2.79133 17.807 4.96277 18.7845 7.08349 18.3245C7.54963 18.8553 8.12268 19.2793 8.76423 19.5682C9.40578 19.8571 10.101 20.0041 10.8034 19.9995C12.9724 20.0051 14.8963 18.5938 15.5632 16.5082C16.2516 16.3658 16.9019 16.0766 17.4707 15.6598C18.0395 15.2429 18.5136 14.7082 18.8612 14.0913C19.9482 12.1963 19.6995 9.80947 18.2463 8.18447L18.2457 8.18572ZM10.8046 18.6926C9.93673 18.694 9.09601 18.3869 8.42966 17.8251C8.45997 17.8088 8.51255 17.7795 8.54658 17.7582L12.4886 15.4582C12.5876 15.4014 12.6698 15.3189 12.7268 15.2192C12.7838 15.1196 12.8134 15.0064 12.8128 14.8913V9.27697L14.4788 10.2488C14.4967 10.2576 14.5085 10.2751 14.5109 10.2951V14.9445C14.5085 17.012 12.8511 18.6882 10.8046 18.6926ZM2.83402 15.2532C2.3992 14.4946 2.24261 13.6056 2.39169 12.742C2.42077 12.7595 2.47211 12.7913 2.50861 12.8126L6.45061 15.1126C6.65044 15.2307 6.89789 15.2307 7.09833 15.1126L11.9108 12.3051V14.2488C11.912 14.2688 11.9027 14.2882 11.8873 14.3007L7.90257 16.6251C6.12768 17.6576 3.86035 17.0438 2.83402 15.2532ZM1.79655 6.56009C2.22961 5.80009 2.91321 5.21884 3.72734 4.91697C3.72734 4.95134 3.72549 5.01197 3.72549 5.05447V9.65509C3.72425 9.88884 3.84798 10.1057 4.04904 10.2213L8.86147 13.0282L7.19546 14.0001C7.17876 14.0113 7.15772 14.0132 7.13916 14.0051L3.15386 11.6788C1.38268 10.6426 0.775792 8.35259 1.79655 6.56009ZM15.4847 9.77822L10.6722 6.97072L12.3383 5.99947C12.355 5.98822 12.376 5.98634 12.3945 5.99447L16.3799 8.31884C18.1541 9.35447 18.7622 11.6476 17.7372 13.4401C17.3036 14.1987 16.6207 14.7799 15.807 15.0826V10.3445C15.8088 10.1107 15.6851 9.89447 15.4847 9.77822ZM17.1426 7.25697C17.1136 7.23884 17.0622 7.20759 17.0257 7.18634L13.0837 4.88634C12.9854 4.82832 12.8737 4.79774 12.7599 4.79774C12.646 4.79774 12.5343 4.82832 12.436 4.88634L7.62356 7.69384V5.75009C7.62233 5.73009 7.63161 5.71072 7.64707 5.69822L11.6318 3.37572C13.4066 2.34134 15.6758 2.95697 16.6991 4.75072C17.1315 5.50838 17.288 6.395 17.1414 7.25697H17.1426ZM6.71787 10.7213L5.05124 9.74947C5.04247 9.7451 5.03493 9.73857 5.02931 9.73049C5.02369 9.72241 5.02017 9.71303 5.01907 9.70322V5.05384C5.02031 2.98384 6.68261 1.30634 8.73155 1.30759C9.59828 1.30759 10.4372 1.61509 11.1034 2.17509C11.0731 2.19134 11.0212 2.22072 10.9865 2.24197L7.04451 4.54197C6.94552 4.5987 6.86329 4.68108 6.80631 4.78062C6.74933 4.88015 6.71965 4.99324 6.72034 5.10822L6.71787 10.7201V10.7213ZM7.62294 8.75009L9.76655 7.49947L11.9101 8.74947V11.2501L9.76655 12.5001L7.62294 11.2501V8.75009Z" fill="black"/>
</g>
<defs>
<clipPath id="clip0_12_3099">
<rect width="20" height="20" fill="white"/>
</clipPath>
</defs>
</svg>
